<svg width="16" height="16" viewBox="0 0 16 16" fill="none" xmlns="http://www.w3.org/2000/svg">
<rect width="5.02605" height="1.25651" transform="matrix(-0.71131 0.702878 0.71131 0.702878 3.57617 11.5841)" fill="white"/>
<path fill-rule="evenodd" clip-rule="evenodd" d="M8.75929 13.3207C5.45281 13.3207 2.89432 10.5994 2.89432 7.40037C2.89432 4.2013 5.45281 1.48007 8.75929 1.48007C12.0658 1.48007 14.6243 4.2013 14.6243 7.40037C14.6243 10.5994 12.0658 13.3207 8.75929 13.3207ZM8.75929 14.8007C4.76036 14.8007 1.51858 11.4875 1.51858 7.40037C1.51858 3.31326 4.76036 0 8.75929 0C12.7582 0 16 3.31326 16 7.40037C16 11.4875 12.7582 14.8007 8.75929 14.8007Z" fill="white"/>
</svg>
