<svg width="50" height="50" viewBox="0 0 50 50" fill="none" xmlns="http://www.w3.org/2000/svg">
<path d="M25 50C38.8071 50 50 38.8071 50 25C50 11.1929 38.8071 0 25 0C11.1929 0 0 11.1929 0 25C0 38.8071 11.1929 50 25 50Z" fill="url(#paint0_linear)"/>
<path fill-rule="evenodd" clip-rule="evenodd" d="M11.3176 24.7359L25.8971 18.4559C32.8399 15.5681 34.2825 15.0665 35.2228 15.05C35.4297 15.0463 35.8921 15.0976 36.1916 15.3406C36.4446 15.5458 36.5141 15.8231 36.5474 16.0176C36.5808 16.2121 36.6222 16.6555 36.5892 17.0018C36.213 20.9548 34.585 30.548 33.7568 34.9755C33.4063 36.849 32.7168 37.4772 32.0483 37.5386C30.5965 37.6722 29.4941 36.5791 28.0879 35.6574L22.5087 31.9098C20.0404 30.2833 21.6405 29.3893 23.0472 27.9283C23.4153 27.5458 29.812 21.7276 29.9357 21.1998C29.9507 21.1338 29.9656 20.8878 29.8194 20.7578C29.6733 20.6278 29.4574 20.6728 29.3018 20.7076C29.0811 20.7577 25.5661 23.081 18.7567 27.6776C17.7589 28.3628 16.8552 28.6966 16.0455 28.6791C15.1529 28.6598 13.4358 28.1744 12.1594 27.7595C10.5937 27.2506 9.34935 26.9815 9.45775 26.1172C9.51415 25.667 10.1341 25.2067 11.3176 24.736L11.3176 24.7359Z" fill="white"/>
<defs>
<linearGradient id="paint0_linear" x1="25" y1="0" x2="25" y2="49.6292" gradientUnits="userSpaceOnUse">
<stop stop-color="#2AABEE"/>
<stop offset="1" stop-color="#229ED9"/>
</linearGradient>
</defs>
</svg>
