<?xml version="1.0" encoding="utf-8"?><svg xmlns="http://www.w3.org/2000/svg" xmlns:xlink="http://www.w3.org/1999/xlink"><symbol viewBox="0 0 20 20" id="close" xmlns="http://www.w3.org/2000/svg"><circle cx="10" cy="10" r="10"/><path d="M6.207 5.5l8.485 8.485-.707.707L5.5 6.207z"/><path d="M5.59 13.985L14.077 5.5l.707.707-8.485 8.485z"/></symbol><symbol viewBox="0 0 31 30" id="fb" xmlns="http://www.w3.org/2000/svg"><path d="M15.91.06C7.677.06.94 6.81.94 15.12c0 7.515 5.48 13.753 12.635 14.88V19.48H9.773v-4.36h3.802V11.8c0-3.773 2.23-5.847 5.659-5.847 1.631 0 3.338.285 3.338.285V9.95h-1.886c-1.857 0-2.44 1.157-2.44 2.345v2.825h4.161l-.673 4.36h-3.488V30a14.955 14.955 0 009.056-5.095 15.067 15.067 0 003.578-9.785C30.88 6.81 24.144.06 15.91.06z"/></symbol><symbol viewBox="0 0 30 30" id="instagram" xmlns="http://www.w3.org/2000/svg"><g clip-path="url(#ca)"><path d="M12.105 14.97a2.865 2.865 0 105.73 0 2.865 2.865 0 00-5.73 0z"/><path d="M8.27 9.9c.137-.372.357-.71.642-.988.277-.285.615-.505.989-.643.302-.117.757-.257 1.595-.295.907-.042 1.179-.05 3.474-.05 2.296 0 2.568.008 3.474.05.838.038 1.293.178 1.596.295.373.138.711.358.988.643.286.278.506.615.644.989.117.303.257.758.295 1.596.042.906.05 1.178.05 3.474 0 2.295-.008 2.567-.05 3.473-.038.838-.178 1.294-.295 1.596a2.665 2.665 0 01-.643.989 2.661 2.661 0 01-.989.643c-.303.118-.758.258-1.596.296-.906.041-1.178.05-3.474.05-2.295 0-2.567-.009-3.473-.05-.838-.038-1.294-.178-1.596-.296a2.847 2.847 0 01-1.632-1.632c-.118-.302-.258-.758-.296-1.596-.041-.906-.05-1.178-.05-3.473 0-2.296.009-2.568.05-3.474.038-.838.178-1.293.296-1.596zm6.7 9.485a4.414 4.414 0 100-8.829 4.414 4.414 0 000 8.829zm-4.588-7.972a1.032 1.032 0 100-2.063 1.032 1.032 0 000 2.064z"/><path d="M14.97 0c8.267 0 14.97 6.704 14.97 14.97 0 8.267-6.703 14.97-14.97 14.97C6.704 29.94 0 23.238 0 14.97 0 6.705 6.704 0 14.97 0zM6.426 18.515c.041.915.187 1.54.4 2.086a4.395 4.395 0 002.513 2.514c.547.213 1.172.358 2.087.4.916.042 1.21.052 3.544.052 2.335 0 2.627-.01 3.544-.052.915-.042 1.54-.187 2.087-.4a4.21 4.21 0 001.522-.991c.437-.43.776-.95.992-1.523.212-.546.358-1.171.4-2.086.041-.917.051-1.21.051-3.544 0-2.335-.01-2.628-.052-3.544-.041-.915-.186-1.54-.399-2.087a4.211 4.211 0 00-.992-1.523 4.21 4.21 0 00-1.522-.991c-.547-.213-1.172-.358-2.087-.4-.917-.041-1.21-.052-3.544-.052s-2.627.01-3.544.053c-.915.041-1.54.186-2.087.399a4.214 4.214 0 00-1.522.991c-.437.43-.776.95-.992 1.523-.212.547-.358 1.171-.4 2.087-.041.916-.051 1.21-.051 3.544s.01 2.627.052 3.544z"/></g><defs><clipPath id="ca"><path transform="matrix(-1 0 0 1 29.94 0)" d="M0 0h29.94v29.94H0z"/></clipPath></defs></symbol><symbol viewBox="0 0 14 14" id="mdi_calendar_today" xmlns="http://www.w3.org/2000/svg"><path d="M11.667 1.75h-.584V.583H9.917V1.75H4.083V.583H2.917V1.75h-.584a1.17 1.17 0 00-1.166 1.167v9.333a1.17 1.17 0 001.166 1.167h9.334a1.17 1.17 0 001.166-1.167V2.917a1.17 1.17 0 00-1.166-1.167zm0 10.5H2.333V4.667h9.334v7.583z"/></symbol><symbol viewBox="0 0 25 25" id="search" xmlns="http://www.w3.org/2000/svg"><path d="M24.911 22.814l-5.057-4.457c1.487-1.98 2.292-4.403 2.292-6.95 0-3.05-1.156-5.909-3.245-8.065C16.812 1.186 14.03 0 11.073 0s-5.74 1.19-7.829 3.342C1.152 5.494 0 8.357 0 11.407c0 3.045 1.155 5.912 3.244 8.064 2.09 2.156 4.869 3.343 7.829 3.343 2.473 0 4.82-.83 6.743-2.358l5.058 4.453a.3.3 0 00.214.091.294.294 0 00.214-.091l1.61-1.654a.312.312 0 00.088-.22.319.319 0 00-.089-.221zM16.92 17.43c-1.565 1.608-3.639 2.494-5.846 2.494-2.207 0-4.282-.886-5.847-2.494a8.603 8.603 0 01-2.42-6.023c0-2.274.86-4.415 2.42-6.023 1.565-1.608 3.64-2.494 5.847-2.494 2.207 0 4.285.882 5.846 2.494a8.602 8.602 0 012.422 6.023c0 2.274-.86 4.414-2.422 6.023z"/></symbol><symbol viewBox="0 0 16 16" id="tel" xmlns="http://www.w3.org/2000/svg"><path d="M14.675 10.817a9.536 9.536 0 01-2.942-.467.814.814 0 00-.841.2l-1.309 1.642C7.225 11.067 5.017 8.942 3.842 6.5l1.625-1.383a.85.85 0 00.2-.85A9.294 9.294 0 015.2 1.325.832.832 0 004.375.5H1.492C1.042.5.5.7.5 1.325.5 9.067 6.942 15.5 14.675 15.5c.592 0 .825-.525.825-.983v-2.875a.832.832 0 00-.825-.825z"/></symbol><symbol viewBox="0 0 31 30" id="vk" xmlns="http://www.w3.org/2000/svg"><path d="M15.85 0C7.584 0 .88 6.702.88 14.97s6.703 14.97 14.97 14.97c8.268 0 14.97-6.702 14.97-14.97S24.119 0 15.85 0zm7.594 16.59c.698.68 1.436 1.322 2.062 2.074.278.333.54.677.738 1.063.285.552.028 1.157-.466 1.19h-3.067c-.792.065-1.422-.255-1.953-.796-.425-.432-.818-.893-1.227-1.34a2.867 2.867 0 00-.552-.49c-.418-.272-.781-.19-1.02.248-.245.444-.3.937-.324 1.431-.034.724-.252.913-.977.947-1.55.072-3.022-.163-4.389-.945-1.206-.69-2.14-1.662-2.953-2.764-1.584-2.148-2.798-4.505-3.888-6.93-.245-.546-.066-.838.537-.85a85.326 85.326 0 013.003 0c.407.006.677.239.833.623.541 1.331 1.204 2.597 2.035 3.772.222.312.448.624.77.845.355.244.626.163.793-.233a2.57 2.57 0 00.177-.792c.08-.925.09-1.85-.049-2.772-.085-.577-.41-.95-.985-1.058-.293-.056-.25-.164-.107-.331.247-.29.478-.468.941-.468l3.465-.001c.546.107.669.352.743.902l.003 3.851c-.006.213.107.844.49.983.306.101.508-.144.69-.338.832-.882 1.424-1.923 1.954-3 .234-.475.436-.967.632-1.46.146-.363.372-.543.784-.536l3.336.004c.099 0 .199 0 .296.017.562.096.716.338.542.887-.273.862-.806 1.58-1.326 2.3-.557.77-1.152 1.514-1.703 2.288-.508.707-.468 1.064.162 1.678z"/></symbol></svg>